<svg xmlns="http://www.w3.org/2000/svg" xmlns:xlink="http://www.w3.org/1999/xlink" width="314" zoomAndPan="magnify" viewBox="0 0 235.5 143.999998" height="192" preserveAspectRatio="xMidYMid meet" version="1.0"><defs><g/><clipPath id="c860908123"><path d="M 0 0.152344 L 235 0.152344 L 235 143.847656 L 0 143.847656 Z M 0 0.152344 " clip-rule="nonzero"/></clipPath><clipPath id="e551b4003c"><path d="M 3 43 L 39 43 L 39 92 L 3 92 Z M 3 43 " clip-rule="nonzero"/></clipPath><clipPath id="1e31197eb3"><path d="M 26.558594 40.152344 L 42.007812 49.246094 L 15.4375 94.386719 L -0.0117188 85.292969 Z M 26.558594 40.152344 " clip-rule="nonzero"/></clipPath><clipPath id="6039275d4a"><path d="M 34.28125 44.699219 C 36.332031 45.90625 37.816406 47.878906 38.414062 50.179688 C 39.007812 52.480469 38.664062 54.921875 37.460938 56.972656 L 19.996094 86.644531 C 18.789062 88.691406 16.816406 90.179688 14.515625 90.773438 C 12.214844 91.371094 9.773438 91.027344 7.722656 89.820312 C 5.675781 88.613281 4.1875 86.644531 3.59375 84.34375 C 2.996094 82.042969 3.339844 79.597656 4.546875 77.550781 L 22.011719 47.878906 C 23.214844 45.828125 25.1875 44.34375 27.488281 43.75 C 29.789062 43.152344 32.234375 43.496094 34.28125 44.699219 Z M 34.28125 44.699219 " clip-rule="nonzero"/></clipPath><clipPath id="a2b30ec8f8"><path d="M 0 0.0234375 L 36 0.0234375 L 36 48.398438 L 0 48.398438 Z M 0 0.0234375 " clip-rule="nonzero"/></clipPath><clipPath id="4a50688bbf"><path d="M 23.558594 -2.847656 L 39.007812 6.246094 L 12.4375 51.386719 L -3.011719 42.292969 Z M 23.558594 -2.847656 " clip-rule="nonzero"/></clipPath><clipPath id="bcbf93e24d"><path d="M 31.28125 1.699219 C 33.332031 2.90625 34.816406 4.878906 35.414062 7.179688 C 36.007812 9.480469 35.664062 11.921875 34.460938 13.972656 L 16.996094 43.644531 C 15.789062 45.691406 13.816406 47.179688 11.515625 47.773438 C 9.214844 48.371094 6.773438 48.027344 4.722656 46.820312 C 2.675781 45.613281 1.1875 43.644531 0.59375 41.34375 C -0.00390625 39.042969 0.339844 36.597656 1.546875 34.550781 L 19.011719 4.878906 C 20.214844 2.828125 22.1875 1.34375 24.488281 0.75 C 26.789062 0.152344 29.234375 0.496094 31.28125 1.699219 Z M 31.28125 1.699219 " clip-rule="nonzero"/></clipPath><clipPath id="7aff9925bb"><rect x="0" width="36" y="0" height="49"/></clipPath><clipPath id="56a2515d99"><path d="M 32.773438 73.074219 L 51.242188 73.074219 L 51.242188 91.542969 L 32.773438 91.542969 Z M 32.773438 73.074219 " clip-rule="nonzero"/></clipPath><clipPath id="c219767355"><path d="M 42.007812 73.074219 C 36.90625 73.074219 32.773438 77.207031 32.773438 82.308594 C 32.773438 87.40625 36.90625 91.542969 42.007812 91.542969 C 47.109375 91.542969 51.242188 87.40625 51.242188 82.308594 C 51.242188 77.207031 47.109375 73.074219 42.007812 73.074219 Z M 42.007812 73.074219 " clip-rule="nonzero"/></clipPath><clipPath id="164cc429ec"><path d="M 0.773438 0.0742188 L 19.242188 0.0742188 L 19.242188 18.542969 L 0.773438 18.542969 Z M 0.773438 0.0742188 " clip-rule="nonzero"/></clipPath><clipPath id="35d18316e7"><path d="M 10.007812 0.0742188 C 4.90625 0.0742188 0.773438 4.207031 0.773438 9.308594 C 0.773438 14.40625 4.90625 18.542969 10.007812 18.542969 C 15.109375 18.542969 19.242188 14.40625 19.242188 9.308594 C 19.242188 4.207031 15.109375 0.0742188 10.007812 0.0742188 Z M 10.007812 0.0742188 " clip-rule="nonzero"/></clipPath><clipPath id="a4bbcd3409"><rect x="0" width="20" y="0" height="19"/></clipPath></defs><g clip-path="url(#c860908123)"><path fill="#ffffff" d="M 0 0.152344 L 235 0.152344 L 235 143.847656 L 0 143.847656 Z M 0 0.152344 " fill-opacity="1" fill-rule="nonzero"/></g><g clip-path="url(#e551b4003c)"><g clip-path="url(#1e31197eb3)"><g clip-path="url(#6039275d4a)"><g transform="matrix(1, 0, 0, 1, 3, 43)"><g clip-path="url(#7aff9925bb)"><g clip-path="url(#a2b30ec8f8)"><g clip-path="url(#4a50688bbf)"><g clip-path="url(#bcbf93e24d)"><path fill="#f4f4f4" d="M 23.558594 -2.847656 L 39.007812 6.246094 L 12.4375 51.386719 L -3.011719 42.292969 Z M 23.558594 -2.847656 " fill-opacity="1" fill-rule="nonzero"/></g></g></g></g></g></g></g></g><g clip-path="url(#56a2515d99)"><g clip-path="url(#c219767355)"><g transform="matrix(1, 0, 0, 1, 32, 73)"><g clip-path="url(#a4bbcd3409)"><g clip-path="url(#164cc429ec)"><g clip-path="url(#35d18316e7)"><path fill="#f4f4f4" d="M 0.773438 0.0742188 L 19.242188 0.0742188 L 19.242188 18.542969 L 0.773438 18.542969 Z M 0.773438 0.0742188 " fill-opacity="1" fill-rule="nonzero"/></g></g></g></g></g></g><g fill="#f4f4f4" fill-opacity="1"><g transform="translate(60.719381, 87.068373)"><g><path d="M 17.1875 0.875 C 15.082031 0.875 13.132812 0.457031 11.34375 -0.375 C 9.550781 -1.207031 7.984375 -2.363281 6.640625 -3.84375 C 5.296875 -5.320312 4.25 -7.039062 3.5 -9 C 2.75 -10.96875 2.375 -13.070312 2.375 -15.3125 C 2.375 -17.5625 2.75 -19.660156 3.5 -21.609375 C 4.25 -23.566406 5.296875 -25.285156 6.640625 -26.765625 C 7.984375 -28.242188 9.550781 -29.398438 11.34375 -30.234375 C 13.132812 -31.066406 15.070312 -31.484375 17.15625 -31.484375 C 19 -31.484375 20.707031 -31.179688 22.28125 -30.578125 C 23.863281 -29.972656 25.257812 -29.113281 26.46875 -28 C 27.6875 -26.894531 28.632812 -25.582031 29.3125 -24.0625 L 29.3125 -30.640625 L 34.265625 -30.640625 L 34.265625 0 L 29.3125 0 L 29.3125 -6.515625 C 28.632812 -5.015625 27.6875 -3.707031 26.46875 -2.59375 C 25.257812 -1.488281 23.863281 -0.632812 22.28125 -0.03125 C 20.707031 0.570312 19.007812 0.875 17.1875 0.875 Z M 18.328125 -3.96875 C 19.828125 -3.96875 21.234375 -4.25 22.546875 -4.8125 C 23.859375 -5.382812 25.003906 -6.1875 25.984375 -7.21875 C 26.960938 -8.25 27.734375 -9.457031 28.296875 -10.84375 C 28.859375 -12.226562 29.140625 -13.71875 29.140625 -15.3125 C 29.140625 -16.894531 28.859375 -18.375 28.296875 -19.75 C 27.734375 -21.125 26.957031 -22.328125 25.96875 -23.359375 C 24.976562 -24.390625 23.832031 -25.191406 22.53125 -25.765625 C 21.226562 -26.347656 19.835938 -26.640625 18.359375 -26.640625 C 16.847656 -26.640625 15.441406 -26.363281 14.140625 -25.8125 C 12.835938 -25.257812 11.6875 -24.472656 10.6875 -23.453125 C 9.6875 -22.429688 8.90625 -21.234375 8.34375 -19.859375 C 7.789062 -18.492188 7.515625 -16.976562 7.515625 -15.3125 C 7.515625 -13.613281 7.796875 -12.066406 8.359375 -10.671875 C 8.929688 -9.285156 9.710938 -8.09375 10.703125 -7.09375 C 11.691406 -6.09375 12.84375 -5.320312 14.15625 -4.78125 C 15.46875 -4.238281 16.859375 -3.96875 18.328125 -3.96875 Z M 18.328125 -3.96875 "/></g></g></g><g fill="#f4f4f4" fill-opacity="1"><g transform="translate(96.375747, 87.068373)"><g><path d="M 15.171875 0.875 C 13.023438 0.875 11.148438 0.585938 9.546875 0.015625 C 7.953125 -0.554688 6.625 -1.328125 5.5625 -2.296875 C 4.5 -3.265625 3.703125 -4.363281 3.171875 -5.59375 C 2.640625 -6.832031 2.375 -8.101562 2.375 -9.40625 L 7.359375 -9.375 C 7.378906 -8.269531 7.691406 -7.253906 8.296875 -6.328125 C 8.910156 -5.410156 9.796875 -4.679688 10.953125 -4.140625 C 12.117188 -3.597656 13.546875 -3.328125 15.234375 -3.328125 C 17.554688 -3.328125 19.304688 -3.78125 20.484375 -4.6875 C 21.660156 -5.601562 22.25 -6.832031 22.25 -8.375 C 22.25 -9.519531 21.9375 -10.414062 21.3125 -11.0625 C 20.695312 -11.71875 19.8125 -12.21875 18.65625 -12.5625 C 17.507812 -12.914062 16.132812 -13.222656 14.53125 -13.484375 C 13.113281 -13.703125 11.757812 -14.003906 10.46875 -14.390625 C 9.175781 -14.785156 8.03125 -15.320312 7.03125 -16 C 6.03125 -16.6875 5.242188 -17.5625 4.671875 -18.625 C 4.097656 -19.6875 3.8125 -20.988281 3.8125 -22.53125 C 3.8125 -24.207031 4.21875 -25.722656 5.03125 -27.078125 C 5.84375 -28.429688 7.0625 -29.507812 8.6875 -30.3125 C 10.320312 -31.113281 12.351562 -31.515625 14.78125 -31.515625 C 17.144531 -31.515625 19.207031 -31.117188 20.96875 -30.328125 C 22.726562 -29.535156 24.097656 -28.445312 25.078125 -27.0625 C 26.054688 -25.675781 26.546875 -24.09375 26.546875 -22.3125 L 21.46875 -22.3125 C 21.394531 -23.78125 20.769531 -24.957031 19.59375 -25.84375 C 18.425781 -26.738281 16.820312 -27.1875 14.78125 -27.1875 C 13.457031 -27.1875 12.363281 -26.976562 11.5 -26.5625 C 10.644531 -26.15625 10 -25.601562 9.5625 -24.90625 C 9.132812 -24.21875 8.921875 -23.460938 8.921875 -22.640625 C 8.921875 -21.679688 9.132812 -20.890625 9.5625 -20.265625 C 10 -19.648438 10.75 -19.144531 11.8125 -18.75 C 12.882812 -18.363281 14.375 -18.007812 16.28125 -17.6875 C 17.675781 -17.46875 19.046875 -17.179688 20.390625 -16.828125 C 21.734375 -16.484375 22.941406 -15.988281 24.015625 -15.34375 C 25.085938 -14.707031 25.9375 -13.847656 26.5625 -12.765625 C 27.195312 -11.679688 27.515625 -10.3125 27.515625 -8.65625 C 27.515625 -6.570312 26.992188 -4.816406 25.953125 -3.390625 C 24.910156 -1.972656 23.460938 -0.90625 21.609375 -0.1875 C 19.753906 0.519531 17.609375 0.875 15.171875 0.875 Z M 15.171875 0.875 "/></g></g></g><g fill="#f4f4f4" fill-opacity="1"><g transform="translate(122.42117, 87.068373)"><g><path d="M 22.4375 0 L 16.796875 0 C 15.628906 0 14.472656 -0.148438 13.328125 -0.453125 C 12.191406 -0.753906 11.15625 -1.300781 10.21875 -2.09375 C 9.289062 -2.894531 8.546875 -4.039062 7.984375 -5.53125 C 7.429688 -7.03125 7.15625 -8.972656 7.15625 -11.359375 L 7.15625 -26.109375 L 0.328125 -26.109375 L 0.328125 -30.640625 L 7.15625 -30.640625 L 7.15625 -39.734375 L 12.3125 -39.765625 L 12.3125 -30.640625 L 22.4375 -30.640625 L 22.4375 -26.109375 L 12.3125 -26.109375 L 12.3125 -11.109375 C 12.3125 -9.691406 12.46875 -8.535156 12.78125 -7.640625 C 13.09375 -6.753906 13.515625 -6.070312 14.046875 -5.59375 C 14.578125 -5.125 15.164062 -4.804688 15.8125 -4.640625 C 16.46875 -4.472656 17.132812 -4.390625 17.8125 -4.390625 L 22.4375 -4.390625 Z M 22.4375 0 "/></g></g></g><g fill="#f4f4f4" fill-opacity="1"><g transform="translate(143.000371, 87.068373)"><g><path d="M 10.15625 0 L 4.953125 0 L 4.953125 -30.640625 L 9.9375 -30.640625 L 9.9375 -23.796875 C 10.695312 -25.910156 11.882812 -27.578125 13.5 -28.796875 C 15.113281 -30.023438 17.03125 -30.640625 19.25 -30.640625 L 22.234375 -30.640625 L 22.234375 -26.109375 L 19.53125 -26.109375 C 17.738281 -26.109375 16.128906 -25.644531 14.703125 -24.71875 C 13.285156 -23.800781 12.171875 -22.46875 11.359375 -20.71875 C 10.554688 -18.976562 10.15625 -16.878906 10.15625 -14.421875 Z M 10.15625 0 "/></g></g></g><g fill="#f4f4f4" fill-opacity="1"><g transform="translate(162.738614, 87.068373)"><g><path d="M 18.296875 0.875 C 16.023438 0.875 13.921875 0.457031 11.984375 -0.375 C 10.054688 -1.207031 8.375 -2.363281 6.9375 -3.84375 C 5.5 -5.320312 4.378906 -7.039062 3.578125 -9 C 2.773438 -10.96875 2.375 -13.070312 2.375 -15.3125 C 2.375 -17.5625 2.773438 -19.660156 3.578125 -21.609375 C 4.378906 -23.566406 5.492188 -25.285156 6.921875 -26.765625 C 8.359375 -28.242188 10.039062 -29.40625 11.96875 -30.25 C 13.90625 -31.09375 16.015625 -31.515625 18.296875 -31.515625 C 20.578125 -31.515625 22.6875 -31.097656 24.625 -30.265625 C 26.570312 -29.429688 28.265625 -28.269531 29.703125 -26.78125 C 31.148438 -25.300781 32.269531 -23.582031 33.0625 -21.625 C 33.863281 -19.664062 34.265625 -17.5625 34.265625 -15.3125 C 34.265625 -13.070312 33.863281 -10.96875 33.0625 -9 C 32.269531 -7.039062 31.148438 -5.320312 29.703125 -3.84375 C 28.265625 -2.363281 26.570312 -1.207031 24.625 -0.375 C 22.6875 0.457031 20.578125 0.875 18.296875 0.875 Z M 18.359375 -4 C 19.878906 -4 21.289062 -4.273438 22.59375 -4.828125 C 23.894531 -5.390625 25.035156 -6.179688 26.015625 -7.203125 C 26.992188 -8.222656 27.753906 -9.425781 28.296875 -10.8125 C 28.835938 -12.195312 29.109375 -13.695312 29.109375 -15.3125 C 29.109375 -16.9375 28.835938 -18.429688 28.296875 -19.796875 C 27.753906 -21.171875 26.992188 -22.367188 26.015625 -23.390625 C 25.035156 -24.421875 23.894531 -25.21875 22.59375 -25.78125 C 21.289062 -26.351562 19.878906 -26.640625 18.359375 -26.640625 C 16.828125 -26.640625 15.40625 -26.351562 14.09375 -25.78125 C 12.789062 -25.21875 11.644531 -24.421875 10.65625 -23.390625 C 9.675781 -22.367188 8.910156 -21.171875 8.359375 -19.796875 C 7.816406 -18.429688 7.546875 -16.9375 7.546875 -15.3125 C 7.546875 -13.695312 7.816406 -12.195312 8.359375 -10.8125 C 8.910156 -9.425781 9.675781 -8.222656 10.65625 -7.203125 C 11.644531 -6.179688 12.789062 -5.390625 14.09375 -4.828125 C 15.40625 -4.273438 16.828125 -4 18.359375 -4 Z M 18.359375 -4 "/></g></g></g></svg>